# xmcd CD database file
#
# Track frame offsets:
#	150
#	13437
#	27882
#	44357
#	57182
#	70930
#	86180
#	99072
#	112167
#	123130
#	138762
#	148310
#	168150
#	184157
#	201915
#	215430
#	237815
#	263922
#	277060
#	294977
#	312000
#
# Disc length: 4370 seconds
#
# Revision: 1
# Processed by: cddbd v1.4PL0 Copyright (c) Steve Scherf et al.
# Submitted via: CDex 1.50
#
DISCID=38111015
DTITLE=Various Blues Artists - The London Blues Festival - Vol 1
DYEAR=1972
DGENRE=Blues
TTITLE0=Howlin' Wolf - Worried about my baby
TTITLE1=Chuck Berry - Let's Boogie
TTITLE2=Howlin' Wolf - Rockin' daddy
TTITLE3=Bo Didley - Going down
TTITLE4=Muddy Waters - Walking blues
TTITLE5=Howlin' Wolf - I ain't superstitious
TTITLE6=Chuck Berry - I will not let you go
TTITLE7=Bo Diddley - Bo Diddley
TTITLE8=Muddy Waters - Key to the highway
TTITLE9=Chuck Berry - I love you
TTITLE10=Howlin' Wolf - Built for comfort
TTITLE11=Muddy Waters - Young fashioned ways
TTITLE12=Bo Diddley - Bo jam
TTITLE13=Muddy Waters - I'm gonna move to the outskirts of town
TTITLE14=Howlin' Wolf - Poor boy
TTITLE15=Bo Diddley - Make e hit record
TTITLE16=Chuck Berry - Mean old word
TTITLE17=Howlin' Wolf - What a woman
TTITLE18=Bo Diddley - I don't want ni lyin' woman
TTITLE19=Howlin' Wolf - Sittin on the top of the world
TTITLE20=Muddy Waters - Blind man blues
EXTD=YEAR: 1972
EXTT0=
EXTT1=
EXTT2=
EXTT3=
EXTT4=
EXTT5=
EXTT6=
EXTT7=
EXTT8=
EXTT9=
EXTT10=
EXTT11=
EXTT12=
EXTT13=
EXTT14=
EXTT15=
EXTT16=
EXTT17=
EXTT18=
EXTT19=
EXTT20=
PLAYORDER=
